<svg xmlns="http://www.w3.org/2000/svg" xmlns:xlink="http://www.w3.org/1999/xlink" version="1.1" id="Layer_1" x="0px" y="0px" width="100%" viewBox="0 0 200 163" enable-background="new 0 0 200 163" xml:space="preserve">
<path fill="#f4f4f4" opacity="1.000000" stroke="none" d=" M201.000000,72.000000   C201.000000,103.000000 201.000000,133.500000 201.000000,164.000000   C134.333328,164.000000 67.666664,164.000000 1.000000,164.000000   C1.000000,109.666664 1.000000,55.333332 1.000000,1.000000   C67.666664,1.000000 134.333328,1.000000 201.000000,1.000000   C201.000000,24.500000 201.000000,48.000000 201.000000,72.000000  M45.323353,8.998527   C44.553623,9.394233 43.783890,9.789940 42.124996,10.034263   C36.854218,10.813644 31.605556,11.929683 26.306448,12.277786   C21.000366,12.626348 18.262791,15.766621 15.926147,19.880970   C14.894170,21.698074 13.694610,23.453112 12.355479,25.056185   C8.950506,29.132275 7.437537,33.713467 8.038695,39.826305   C8.058002,41.216595 8.077307,42.606888 8.003734,44.776356   C7.731873,46.518757 7.460011,48.261158 7.068869,50.762390   C7.049127,56.924175 6.785949,63.098797 7.109995,69.242447   C7.277774,72.423409 7.933861,75.831726 9.363367,78.629417   C11.179370,82.183517 9.709981,88.769508 17.211729,88.662117   C20.465500,90.784996 23.719273,92.907875 27.260389,95.727058   C29.831171,96.486092 32.400944,97.877968 34.972931,97.882080   C41.891239,97.893143 48.813240,97.356171 55.727264,96.930984   C57.271984,96.835991 58.790047,96.307587 60.591881,96.025909   C60.591881,96.025909 60.841377,95.908905 61.609463,95.992691   C62.737541,95.661514 63.865620,95.330330 65.816566,94.985207   C67.075958,94.733727 68.359673,94.567482 69.590630,94.216301   C75.516304,92.525742 81.428719,90.788589 87.344063,89.061920   C102.237907,84.714478 117.130798,80.363762 132.799042,75.934441   C137.202194,74.926544 141.629990,74.014084 146.001968,72.885468   C150.942902,71.609978 156.474854,71.155251 160.611694,68.541977   C169.002350,63.241524 178.323151,58.653751 183.757553,48.993122   C184.851639,48.032192 185.945709,47.071259 187.632614,45.828682   C188.116348,44.900574 188.600082,43.972466 189.037201,43.030121   C189.037201,43.030121 189.059799,43.074738 189.697739,42.769016   C194.653427,36.447929 195.090073,29.863426 190.959473,22.216921   C190.648972,21.313120 190.103439,20.418720 190.066849,19.503962   C189.859329,14.316323 187.129333,12.405237 182.152863,12.981828   C179.125717,13.332563 176.069519,13.432638 172.761963,13.122177   C172.189270,13.110751 171.616577,13.099325 170.521912,13.040261   C170.352005,13.080980 170.182114,13.121698 169.576935,13.004896   C169.576935,13.004896 169.125748,12.901330 168.727036,12.206293   C164.180176,11.775397 159.633301,11.344501 155.009186,10.446923   C155.009186,10.446923 154.861816,9.997413 154.646088,9.149007   C142.775101,8.754964 130.904099,8.360922 118.687843,7.169061   C113.983772,6.779643 109.282784,6.105038 104.575058,6.054339   C90.516541,5.902939 76.455231,5.966761 62.395466,6.036946   C60.914204,6.044340 59.435940,6.651371 57.208210,7.305642   C54.475609,7.586833 51.743008,7.868025 48.354218,8.178552   C47.563202,8.492905 46.772190,8.807258 45.323353,8.998527  M86.351669,141.853546   C86.351669,141.853546 86.381393,141.881897 87.038200,141.417450   C87.931709,137.402969 89.265182,133.424225 89.595032,129.363953   C89.925163,125.300140 88.235085,120.870506 89.283577,117.119141   C90.520805,112.692528 88.937485,110.270271 86.213852,107.674438   C83.541023,105.127022 81.228470,100.911079 78.170525,100.281937   C65.029282,97.578278 51.764988,97.149803 39.413139,103.926712   C30.549257,108.789932 24.106289,115.660347 21.995600,126.836838   C21.653612,131.532730 21.154169,136.226166 21.081196,140.926239   C21.063126,142.090134 22.428305,143.275528 23.280876,144.728271   C23.280876,144.728271 23.557892,144.852005 23.878662,145.332977   C24.922148,146.162582 25.965633,146.992203 27.637577,148.115234   C31.470764,152.457581 35.213089,156.877853 41.344505,158.130127   C45.093239,158.895767 48.805687,159.851196 52.513172,160.804108   C59.956367,162.717163 71.055687,158.449631 75.867134,151.995377   C80.999168,152.134064 81.629929,146.863419 85.233940,144.206268   C85.530869,143.484482 85.827789,142.762695 86.269653,142.015472   C86.269653,142.015472 86.346329,141.889893 86.351669,141.853546  M121.292534,97.262169   C114.177574,100.370895 107.058723,103.470917 99.970116,106.638603   C99.792938,106.717773 99.949707,107.544250 100.076218,108.490944   C100.076218,108.490944 99.987595,108.968048 99.479111,108.988449   C99.314278,109.028503 99.149437,109.068550 98.288712,109.212631   C96.468262,112.248093 94.022812,115.089348 93.002419,118.373398   C91.973221,121.685783 92.358376,125.437622 91.976357,129.776703   C90.293159,134.490387 93.269707,145.205521 97.743347,148.119537   C101.783875,150.751419 105.040634,155.074265 111.025780,154.252960   C113.903549,153.858078 117.027023,155.253784 120.962936,155.984360   C129.962036,155.939285 138.961136,155.894226 148.796341,155.953201   C151.871780,155.251495 154.947235,154.549774 158.766235,153.983200   C169.205444,151.135880 172.191925,141.707336 175.784164,133.462967   C178.842484,126.444016 180.264236,118.655678 181.931259,111.102051   C183.733917,102.933708 186.463776,94.526108 180.015076,86.206375   C179.628510,85.144081 179.241959,84.081787 178.993027,82.175652   C179.252396,79.080292 179.216339,76.151001 174.749176,77.076874   C163.381485,79.432961 152.352295,82.657768 142.303406,89.771637   C141.748825,89.784256 141.135315,89.644470 140.648575,89.832611   C134.435226,92.234322 128.240021,94.683022 121.292534,97.262169  z"/>
<path fill="#24B14D" opacity="1.000000" stroke="none" d=" M60.841377,95.908905   C60.841377,95.908905 60.591881,96.025909 60.077873,95.951492   C59.058086,95.851662 58.552303,95.826241 58.011185,95.581848   C57.813862,95.140541 57.651871,94.918198 57.489883,94.695854   C57.308983,95.064743 57.128086,95.433632 56.555832,95.844658   C55.115425,95.903030 54.066364,95.919273 52.907982,95.553085   C47.858654,94.782272 42.918652,94.393898 37.932468,93.689270   C37.259018,92.907387 36.631752,92.441757 35.838596,91.664017   C34.482403,89.639259 33.607327,87.521675 32.036007,86.298485   C28.790304,83.771866 25.229113,81.628777 21.686018,79.515121   C19.919407,78.461235 17.906628,77.819977 15.951811,76.661530   C14.589561,75.225830 13.280702,74.120674 11.942978,72.701141   C11.896250,71.966255 11.878386,71.545738 12.059191,70.739403   C13.050079,60.581852 15.365593,50.900581 14.005053,40.580490   C14.198488,38.713642 14.139620,37.177746 14.622149,35.836651   C16.300190,31.172855 18.165932,26.576597 20.150042,21.687216   C21.541992,20.906904 22.744194,20.394032 24.158520,20.154385   C26.945311,18.988092 29.519981,17.548571 32.313057,16.085604   C32.531467,16.062157 32.972462,16.040613 33.305771,16.043884   C34.083004,16.036938 34.526928,16.026720 35.081329,16.403610   C36.694550,17.190657 38.178070,17.808647 39.704208,17.943148   C42.503288,18.189837 45.692230,17.328588 48.073666,18.384233   C55.571106,21.707712 63.245380,18.742590 70.262505,18.088593   C81.426430,17.048115 92.376091,15.321391 103.620407,16.812704   C104.994499,16.994947 106.567001,15.681189 108.442451,15.050514   C109.893311,15.029733 110.949280,15.019164 112.389595,15.009698   C114.186798,14.697831 115.599655,14.384863 117.455582,14.053899   C120.266220,14.022519 122.633781,14.009134 125.469742,14.007103   C139.624557,14.348230 153.310974,14.678005 167.255585,15.262064   C169.339172,15.365626 171.164536,15.214903 173.344543,15.098282   C174.408127,15.171423 175.117111,15.210464 175.997589,15.592661   C177.213409,16.271315 178.317352,17.016193 179.292145,16.874245   C184.642258,16.095169 186.524872,19.346189 187.815140,23.649660   C189.329620,28.700966 191.612274,33.648743 188.678925,39.138939   C184.453583,40.852745 181.500076,43.135277 181.562500,47.951805   C180.526749,48.366619 179.512375,48.596615 179.236328,49.177479   C177.250687,53.355961 174.662216,56.655903 170.033615,58.372768   C166.274460,59.767132 162.383484,61.472584 159.339798,63.992752   C152.691299,69.497688 144.812210,70.163727 136.844727,70.665253   C135.547104,70.215286 134.267197,70.104309 132.653992,69.995316   C131.538177,70.308746 130.755615,70.620186 129.588806,70.951218   C127.480812,71.365913 125.757088,71.761017 124.033356,72.156120   C124.087158,72.435852 124.140953,72.715576 124.194748,72.995308   C126.131660,72.995308 128.068573,72.995308 130.347763,73.061234   C131.134705,74.089569 131.579376,75.051964 132.024063,76.014359   C117.130798,80.363762 102.237907,84.714478 87.344063,89.061920   C81.428719,90.788589 75.516304,92.525742 69.590630,94.216301   C68.359673,94.567482 67.075958,94.733727 65.193504,94.760941   C63.327423,94.994087 62.084400,95.451500 60.841377,95.908905  M143.409576,66.561882   C143.940735,66.777847 144.471909,66.993813 145.003082,67.209778   C145.101730,66.665825 145.200378,66.121864 145.299026,65.577904   C144.754303,65.738480 144.209564,65.899055 143.409576,66.561882  M139.157791,68.724945   C139.061752,68.725616 138.965714,68.726295 139.157791,68.724945  z"/>
<path fill="#A34BA3" opacity="1.000000" stroke="none" d=" M120.039230,155.838638   C117.027023,155.253784 113.903549,153.858078 111.025780,154.252960   C105.040634,155.074265 101.783875,150.751419 97.743347,148.119537   C93.269707,145.205521 90.293159,134.490387 92.401627,129.376373   C93.388962,128.708847 94.455795,128.406082 94.439835,128.179642   C93.944725,121.155785 96.366867,115.601212 102.215111,111.485001   C102.920280,110.988663 102.738853,109.232658 103.327393,107.996933   C109.704239,105.651741 115.758110,103.457497 121.704895,101.003723   C122.713287,100.587639 123.261421,99.056114 124.398911,97.978027   C130.839890,95.597908 136.904160,93.279694 143.370880,90.966934   C146.304901,90.252464 148.971222,89.830055 151.342407,88.756058   C158.070175,85.708801 164.163452,81.040527 172.162933,81.279907   C173.903061,83.358994 175.493134,85.139694 177.104630,87.303391   C178.098312,92.130325 179.070572,96.574242 179.888092,101.350838   C176.736465,111.761055 172.743240,121.674927 171.052536,131.967026   C169.656586,140.464966 166.768890,146.936142 159.459152,151.414536   C158.749664,151.849213 158.490753,153.019333 158.022675,153.848053   C154.947235,154.549774 151.871780,155.251495 148.066208,155.631363   C138.237122,155.485901 129.138184,155.662277 120.039230,155.838638  z"/>
<path fill="#E89050" opacity="1.000000" stroke="none" d=" M22.175251,125.995583   C24.106289,115.660347 30.549257,108.789932 39.413139,103.926712   C51.764988,97.149803 65.029282,97.578278 78.170525,100.281937   C81.228470,100.911079 83.541023,105.127022 86.213852,107.674438   C88.937485,110.270271 90.520805,112.692528 89.283577,117.119141   C88.235085,120.870506 89.925163,125.300140 89.595032,129.363953   C89.265182,133.424225 87.931709,137.402969 86.616180,141.172577   C86.140129,139.960449 86.086090,138.993210 86.088173,137.613220   C86.765839,130.798187 87.387390,124.395897 88.013275,117.606621   C88.117928,112.777252 85.206619,110.290550 81.842331,107.747330   C81.117729,107.324257 80.570320,107.136795 79.860550,106.649002   C77.292305,103.051758 74.096603,101.507744 69.550385,101.969543   C66.738312,101.981117 64.369980,101.999329 61.585365,102.002190   C59.781277,101.991150 58.393459,101.995468 56.609039,102.045654   C46.828964,103.463646 38.068302,106.267830 32.224560,114.335251   C29.105471,118.641228 26.664042,123.438080 23.700871,127.851410   C23.048399,127.124817 22.611824,126.560196 22.175251,125.995583  z"/>
<path fill="#B274B2" opacity="1.000000" stroke="none" d=" M158.394470,153.915634   C158.490753,153.019333 158.749664,151.849213 159.459152,151.414536   C166.768890,146.936142 169.656586,140.464966 171.052536,131.967026   C172.743240,121.674927 176.736465,111.761055 180.260437,101.249001   C181.183395,99.029129 182.041779,97.197975 181.870590,95.468742   C181.588623,92.620148 180.640564,89.837494 180.003876,86.997025   C180.034439,86.966995 180.095963,86.907326 180.095963,86.907326   C186.463776,94.526108 183.733917,102.933708 181.931259,111.102051   C180.264236,118.655678 178.842484,126.444016 175.784164,133.462967   C172.191925,141.707336 169.205444,151.135880 158.394470,153.915634  z"/>
<path fill="#FCA05A" opacity="1.000000" stroke="none" d=" M75.102180,152.067154   C71.055687,158.449631 59.956367,162.717163 52.513172,160.804108   C48.805687,159.851196 45.093239,158.895767 41.344505,158.130127   C35.213089,156.877853 31.470764,152.457581 27.310978,147.592407   C25.842216,146.330368 24.700056,145.591187 23.557892,144.852005   C23.557892,144.852005 23.280876,144.728271 23.448799,144.201111   C23.723244,140.784683 23.829763,137.895416 24.199070,135.025360   C24.635904,135.064667 24.809948,135.084763 25.007082,135.373810   C25.304111,136.081863 25.578047,136.520981 25.901491,137.330322   C27.222652,140.168091 27.950373,143.217957 29.860426,145.001968   C37.987617,152.592896 47.895390,156.292923 58.972088,155.833527   C63.674320,155.638489 68.313065,153.912720 73.205017,152.807816   C73.716805,152.564545 73.906792,152.320297 74.220398,151.982193   C74.441460,151.964188 74.885002,151.957687 74.927353,152.008743   C74.969711,152.059799 75.102180,152.067154 75.102180,152.067154  z"/>
<path fill="#45B665" opacity="1.000000" stroke="none" d=" M129.973068,70.931625   C130.755615,70.620186 131.538177,70.308746 132.887939,70.255386   C134.590912,70.677071 135.726654,70.840660 136.862411,71.004250   C144.812210,70.163727 152.691299,69.497688 159.339798,63.992752   C162.383484,61.472584 166.274460,59.767132 170.033615,58.372768   C174.662216,56.655903 177.250687,53.355961 179.236328,49.177479   C179.512375,48.596615 180.526749,48.366619 181.709106,48.190475   C182.515381,48.623928 182.811920,48.841099 183.108444,49.058266   C178.323151,58.653751 169.002350,63.241524 160.611694,68.541977   C156.474854,71.155251 150.942902,71.609978 146.001968,72.885468   C141.629990,74.014084 137.202194,74.926544 132.411560,75.974396   C131.579376,75.051964 131.134705,74.089569 130.346405,72.717712   C129.992874,71.849388 129.982971,71.390511 129.973068,70.931625  z"/>
<path fill="#6CB984" opacity="1.000000" stroke="none" d=" M23.946396,19.881159   C22.744194,20.394032 21.541992,20.906904 19.804314,21.733906   C13.275803,26.112703 11.130541,32.290619 9.661257,39.001659   C8.971532,39.001122 8.577836,39.001293 8.184139,39.001469   C7.437537,33.713467 8.950506,29.132275 12.355479,25.056185   C13.694610,23.453112 14.894170,21.698074 15.926147,19.880970   C18.262791,15.766621 21.000366,12.626348 26.306448,12.277786   C31.605556,11.929683 36.854218,10.813644 42.570580,10.299128   C43.016163,10.563992 43.018703,10.942346 43.021057,10.976944   C43.023415,11.011541 43.018753,11.079622 42.647377,11.202703   C41.155678,11.541903 40.018524,11.694289 38.917934,11.985087   C33.940605,13.300203 28.973612,14.654447 23.878595,16.272673   C23.818329,17.660885 23.882362,18.771021 23.946396,19.881159  z"/>
<path fill="#9D639C" opacity="1.000000" stroke="none" d=" M172.012863,80.981514   C164.163452,81.040527 158.070175,85.708801 151.342407,88.756058   C148.971222,89.830055 146.304901,90.252464 143.372711,90.708626   C142.969910,90.272385 142.967743,90.099907 142.965576,89.927437   C152.352295,82.657768 163.381485,79.432961 174.749176,77.076874   C179.216339,76.151001 179.252396,79.080292 178.584976,82.538239   C176.035858,82.538483 175.199188,77.986954 172.012863,80.981514  z"/>
<path fill="#6CBC85" opacity="1.000000" stroke="none" d=" M11.860520,71.125221   C11.878386,71.545738 11.896250,71.966255 11.931482,73.120880   C12.926924,77.269676 13.904997,80.684349 14.992877,84.301147   C15.288558,84.761070 15.531943,84.941162 15.982491,85.263794   C16.413725,85.697319 16.695305,85.910599 16.964333,86.442520   C16.946535,87.185822 16.941286,87.610458 16.936039,88.035103   C9.709981,88.769508 11.179370,82.183517 9.363367,78.629417   C7.933861,75.831726 7.277774,72.423409 7.109995,69.242447   C6.785949,63.098797 7.049127,56.924175 7.440723,50.381493   C8.229765,49.995735 8.646952,49.990879 9.225475,50.281319   C8.973727,54.456928 7.960427,58.396648 8.336782,62.198818   C8.639844,65.260551 10.622866,68.155998 11.860520,71.125221  z"/>
<path fill="#40B965" opacity="1.000000" stroke="none" d=" M15.832840,85.043541   C15.531943,84.941162 15.288558,84.761070 15.274348,84.056198   C15.631591,82.407112 15.817168,81.205086 16.264206,80.238953   C18.690031,86.298271 24.636560,87.636185 29.044374,90.700432   C30.807796,91.926338 33.652157,91.597343 36.004486,91.976128   C36.631752,92.441757 37.259018,92.907387 37.701324,93.857712   C37.352318,94.876236 37.188271,95.410049 36.589531,95.957748   C33.094238,95.657997 30.033644,95.344368 26.973045,95.030746   C23.719273,92.907875 20.465500,90.784996 17.073883,88.348610   C16.941286,87.610458 16.946535,87.185822 16.850143,86.190567   C16.443283,85.427818 16.138062,85.235680 15.832840,85.043541  z"/>
<path fill="#55B973" opacity="1.000000" stroke="none" d=" M189.000610,39.001465   C191.612274,33.648743 189.329620,28.700966 187.815140,23.649660   C186.524872,19.346189 184.642258,16.095169 179.292145,16.874245   C178.317352,17.016193 177.213409,16.271315 176.453949,15.511751   C181.992142,15.084585 187.859146,13.898580 188.962982,21.696146   C189.035950,22.211565 190.195541,22.573156 190.849716,23.006298   C195.090073,29.863426 194.653427,36.447929 189.360352,42.514671   C189.015503,41.174042 189.008057,40.087753 189.000610,39.001465  z"/>
<path fill="#E5FFEC" opacity="1.000000" stroke="none" d=" M57.956284,6.980205   C59.435940,6.651371 60.914204,6.044340 62.395466,6.036946   C76.455231,5.966761 90.516541,5.902939 104.575058,6.054339   C109.282784,6.105038 113.983772,6.779643 118.854034,7.574345   C119.020233,7.979629 119.017776,7.982216 118.562660,8.028778   C115.049835,8.114875 111.992119,8.154409 108.574417,8.139147   C107.487206,8.052773 106.759972,8.021196 105.959396,7.748125   C105.596420,7.380394 105.306786,7.254159 104.550537,7.079778   C98.670082,7.132450 93.256248,7.233267 87.432220,7.294290   C82.862885,7.513491 78.703751,7.772487 74.302887,7.739467   C69.696846,7.388419 65.332527,7.329386 60.594151,7.211598   C59.465485,7.095297 58.710884,7.037751 57.956284,6.980205  z"/>
<path fill="#9E659B" opacity="1.000000" stroke="none" d=" M102.968353,108.060486   C102.738853,109.232658 102.920280,110.988663 102.215111,111.485001   C96.366867,115.601212 93.944725,121.155785 94.439835,128.179642   C94.455795,128.406082 93.388962,128.708847 92.475388,128.986481   C92.358376,125.437622 91.973221,121.685783 93.002419,118.373398   C94.022812,115.089348 96.468262,112.248093 98.669739,109.398575   C99.230431,109.812019 99.410095,110.039513 99.589760,110.267014   C99.722366,109.834023 99.854980,109.401039 99.987595,108.968048   C99.987595,108.968048 100.076218,108.490944 100.390923,108.256729   C101.459869,108.035172 102.214111,108.047829 102.968353,108.060486  z"/>
<path fill="#8F5F8E" opacity="1.000000" stroke="none" d=" M103.327393,107.996933   C102.214111,108.047829 101.459869,108.035172 100.328186,108.022354   C99.949707,107.544250 99.792938,106.717773 99.970116,106.638603   C107.058723,103.470917 114.177574,100.370895 121.836395,97.423080   C122.927567,97.735977 123.474884,97.887955 124.022194,98.039932   C123.261421,99.056114 122.713287,100.587639 121.704895,101.003723   C115.758110,103.457497 109.704239,105.651741 103.327393,107.996933  z"/>
<path fill="#A47AA4" opacity="1.000000" stroke="none" d=" M124.398911,97.978027   C123.474884,97.887955 122.927567,97.735977 122.210236,97.351898   C128.240021,94.683022 134.435226,92.234322 140.648575,89.832611   C141.135315,89.644470 141.748825,89.784256 142.634491,89.849533   C142.967743,90.099907 142.969910,90.272385 142.970261,90.703171   C136.904160,93.279694 130.839890,95.597908 124.398911,97.978027  z"/>
<path fill="#F3A468" opacity="1.000000" stroke="none" d=" M23.936283,135.006149   C23.829763,137.895416 23.723244,140.784683 23.387180,144.062500   C22.428305,143.275528 21.063126,142.090134 21.081196,140.926239   C21.154169,136.226166 21.653612,131.532730 22.085426,126.416214   C22.611824,126.560196 23.048399,127.124817 23.714169,128.287354   C23.941006,130.925568 23.938644,132.965866 23.936283,135.006149  z"/>
<path fill="#77C390" opacity="1.000000" stroke="none" d=" M190.904602,22.611610   C190.195541,22.573156 189.035950,22.211565 188.962982,21.696146   C187.859146,13.898580 181.992142,15.084585 176.282440,15.168594   C175.117111,15.210464 174.408127,15.171423 173.355835,14.743432   C173.017151,14.118091 173.021774,13.881701 173.026382,13.645311   C176.069519,13.432638 179.125717,13.332563 182.152863,12.981828   C187.129333,12.405237 189.859329,14.316323 190.066849,19.503962   C190.103439,20.418720 190.648972,21.313120 190.904602,22.611610  z"/>
<path fill="#64C381" opacity="1.000000" stroke="none" d=" M27.116718,95.378906   C30.033644,95.344368 33.094238,95.657997 37.053501,95.976326   C42.973881,95.965866 47.995594,95.950691 53.017307,95.935524   C54.066364,95.919273 55.115425,95.903030 56.831062,95.881577   C57.680603,95.851189 57.863564,95.825996 58.046524,95.800812   C58.552303,95.826241 59.058086,95.851662 59.942123,95.927902   C58.790047,96.307587 57.271984,96.835991 55.727264,96.930984   C48.813240,97.356171 41.891239,97.893143 34.972931,97.882080   C32.400944,97.877968 29.831171,96.486092 27.116718,95.378906  z"/>
<path fill="#4ABD6F" opacity="1.000000" stroke="none" d=" M188.678925,39.138939   C189.008057,40.087753 189.015503,41.174042 189.041382,42.667534   C189.059799,43.074738 189.037201,43.030121 188.704865,43.083794   C187.928284,44.128422 187.484039,45.119373 187.039795,46.110325   C185.945709,47.071259 184.851639,48.032192 183.432999,49.025696   C182.811920,48.841099 182.515381,48.623928 182.072266,48.168087   C181.500076,43.135277 184.453583,40.852745 188.678925,39.138939  z"/>
<path fill="#E4FFEC" opacity="1.000000" stroke="none" d=" M119.026672,7.973254   C130.904099,8.360922 142.775101,8.754964 154.542206,9.676387   C154.164658,10.411205 154.033386,10.686571 153.701370,11.074127   C152.896988,11.124887 152.435745,11.131385 151.703018,10.828832   C147.957565,10.416084 144.483627,10.312387 140.674774,10.162249   C139.889404,10.104213 139.438950,10.092619 138.698730,9.777130   C132.575623,9.422200 126.742264,9.371165 120.593391,9.251723   C119.850067,9.136895 119.422249,9.090473 118.975471,8.778048   C118.976936,8.335435 118.997360,8.158826 119.017776,7.982216   C119.017776,7.982216 119.020233,7.979629 119.026672,7.973254  z"/>
<path fill="#F28638" opacity="1.000000" stroke="none" d=" M84.759544,144.595734   C81.629929,146.863419 80.999168,152.134064 75.484657,152.031265   C75.102180,152.067154 74.969711,152.059799 75.007553,151.659912   C78.015579,148.826096 80.985756,146.392197 84.148506,144.128159   C84.480560,144.397263 84.620056,144.496506 84.759544,144.595734  z"/>
<path fill="#B274B2" opacity="1.000000" stroke="none" d=" M172.162933,81.279907   C175.199188,77.986954 176.035858,82.538483 178.516174,82.960159   C179.241959,84.081787 179.628510,85.144081 180.055511,86.556854   C180.095963,86.907326 180.034439,86.966995 179.641373,86.998932   C178.526611,86.994041 177.804916,86.957214 177.083221,86.920387   C175.493134,85.139694 173.903061,83.358994 172.162933,81.279907  z"/>
<path fill="#B978B8" opacity="1.000000" stroke="none" d=" M120.501083,155.911499   C129.138184,155.662277 138.237122,155.485901 147.648163,155.579346   C138.961136,155.894226 129.962036,155.939285 120.501083,155.911499  z"/>
<path fill="#77C390" opacity="1.000000" stroke="none" d=" M57.582245,7.142923   C58.710884,7.037751 59.465485,7.095297 60.604820,7.477139   C61.004566,8.155137 61.019573,8.508840 60.672348,8.902446   C59.206974,9.276244 58.103828,9.610139 56.563576,9.952267   C54.090420,9.978221 52.054371,9.995941 49.786049,9.855822   C49.372650,9.181728 49.191528,8.665472 49.010406,8.149217   C51.743008,7.868025 54.475609,7.586833 57.582245,7.142923  z"/>
<path fill="#77C390" opacity="1.000000" stroke="none" d=" M155.086441,10.913606   C159.633301,11.344501 164.180176,11.775397 168.734100,12.797036   C168.163193,13.574127 167.585220,13.760475 166.718536,13.683009   C162.614090,12.624650 158.798355,11.830104 155.007370,11.004042   C155.032120,10.972527 155.086441,10.913606 155.086441,10.913606  z"/>
<path fill="#55B973" opacity="1.000000" stroke="none" d=" M167.007263,13.946823   C167.585220,13.760475 168.163193,13.574127 168.933441,13.144554   C169.125748,12.901330 169.576935,13.004896 169.902313,13.226519   C170.499771,13.328059 170.771820,13.207977 171.043884,13.087896   C171.616577,13.099325 172.189270,13.110751 172.894165,13.383744   C173.021774,13.881701 173.017151,14.118091 173.001221,14.709332   C171.164536,15.214903 169.339172,15.365626 167.257446,14.996778   C167.003159,14.300411 167.005203,14.123617 167.007263,13.946823  z"/>
<path fill="#6CBC85" opacity="1.000000" stroke="none" d=" M8.111418,39.413887   C8.577836,39.001293 8.971532,39.001122 9.696696,39.290215   C10.316508,40.055424 10.604854,40.531368 10.895625,41.344582   C10.555246,42.448700 10.212440,43.215546 9.574085,43.988884   C8.884561,43.995975 8.490586,43.996574 8.096612,43.997177   C8.077307,42.606888 8.058002,41.216595 8.111418,39.413887  z"/>
<path fill="#6CB984" opacity="1.000000" stroke="none" d=" M8.050173,44.386765   C8.490586,43.996574 8.884561,43.995975 9.608225,44.371494   C9.646656,46.493752 9.355398,48.239883 9.064138,49.986019   C8.646952,49.990879 8.229765,49.995735 7.500364,50.002075   C7.460011,48.261158 7.731873,46.518757 8.050173,44.386765  z"/>
<path fill="#F28638" opacity="1.000000" stroke="none" d=" M86.032051,138.025970   C86.086090,138.993210 86.140129,139.960449 86.287781,141.404785   C86.381393,141.881897 86.351669,141.853546 86.243927,141.702576   C86.014198,141.516617 85.892212,141.481613 85.770233,141.446594   C85.888397,141.644699 86.006561,141.842804 86.124725,142.040909   C85.827789,142.762695 85.530869,143.484482 84.996742,144.401001   C84.620056,144.496506 84.480560,144.397263 84.159485,143.744019   C84.662605,141.468658 85.347328,139.747314 86.032051,138.025970  z"/>
<path fill="#6CB984" opacity="1.000000" stroke="none" d=" M48.682312,8.163884   C49.191528,8.665472 49.372650,9.181728 49.516228,10.113725   C47.978630,10.710277 46.478577,10.891087 44.982071,11.033790   C44.985619,10.995682 44.998547,10.920237 45.096886,10.681952   C45.457207,10.002981 45.719189,9.562296 45.981174,9.121610   C46.772190,8.807258 47.563202,8.492905 48.682312,8.163884  z"/>
<path fill="#F3A468" opacity="1.000000" stroke="none" d=" M23.718277,145.092499   C24.700056,145.591187 25.842216,146.330368 26.996748,147.445679   C25.965633,146.992203 24.922148,146.162582 23.718277,145.092499  z"/>
<path fill="#64C381" opacity="1.000000" stroke="none" d=" M61.225418,95.950798   C62.084400,95.451500 63.327423,94.994087 64.782074,94.767914   C63.865620,95.330330 62.737541,95.661514 61.225418,95.950798  z"/>
<path fill="#55B973" opacity="1.000000" stroke="none" d=" M187.336212,45.969505   C187.484039,45.119373 187.928284,44.128422 188.728165,43.090912   C188.600082,43.972466 188.116348,44.900574 187.336212,45.969505  z"/>
<path fill="#77C390" opacity="1.000000" stroke="none" d=" M45.652264,9.060068   C45.719189,9.562296 45.457207,10.002981 44.767525,10.713822   C43.899452,10.970099 43.459080,10.956223 43.018703,10.942346   C43.018703,10.942346 43.016163,10.563992 43.015160,10.374819   C43.783890,9.789940 44.553623,9.394233 45.652264,9.060068  z"/>
<path fill="#8F5F8E" opacity="1.000000" stroke="none" d=" M99.733353,108.978249   C99.854980,109.401039 99.722366,109.834023 99.589760,110.267014   C99.410095,110.039513 99.230431,109.812019 99.017685,109.346558   C99.149437,109.068550 99.314278,109.028503 99.733353,108.978249  z"/>
<path fill="#77C390" opacity="1.000000" stroke="none" d=" M170.782898,13.064078   C170.771820,13.207977 170.499771,13.328059 170.119965,13.305279   C170.182114,13.121698 170.352005,13.080980 170.782898,13.064078  z"/>
<path fill="#E89050" opacity="1.000000" stroke="none" d=" M86.197189,142.028198   C86.006561,141.842804 85.888397,141.644699 85.770233,141.446594   C85.892212,141.481613 86.014198,141.516617 86.241257,141.720764   C86.346329,141.889893 86.269653,142.015472 86.197189,142.028198  z"/>
<path fill="#77C390" opacity="1.000000" stroke="none" d=" M154.044525,11.029866   C154.033386,10.686571 154.164658,10.411205 154.650085,10.100590   C154.861816,9.997413 155.009186,10.446923 155.047821,10.680264   C155.086441,10.913606 155.032120,10.972527 154.772720,11.011875   C154.513321,11.051224 154.044525,11.029866 154.044525,11.029866  z"/>
<path fill="#3FBC62" opacity="1.000000" stroke="none" d=" M108.047554,15.060726   C106.567001,15.681189 104.994499,16.994947 103.620407,16.812704   C92.376091,15.321391 81.426430,17.048115 70.262505,18.088593   C63.245380,18.742590 55.571106,21.707712 48.073666,18.384233   C45.692230,17.328588 42.503288,18.189837 39.704208,17.943148   C38.178070,17.808647 36.694550,17.190657 35.490936,16.385754   C40.194515,15.319619 44.598965,14.658451 49.429550,13.995358   C55.069294,13.438302 60.273403,12.544795 65.498466,12.398208   C76.509705,12.089293 87.537651,11.949260 98.546043,12.232736   C101.735374,12.314864 104.881577,14.071651 108.047554,15.060726  z"/>
<path fill="#4EC16D" opacity="1.000000" stroke="none" d=" M108.442451,15.050514   C104.881577,14.071651 101.735374,12.314864 98.546043,12.232736   C87.537651,11.949260 76.509705,12.089293 65.498466,12.398208   C60.273403,12.544795 55.069294,13.438302 49.425457,13.742933   C48.994015,13.324112 48.992809,13.155790 49.249039,12.724869   C52.004547,11.622857 54.502617,10.783445 57.000687,9.944035   C58.103828,9.610139 59.206974,9.276244 60.999054,8.937594   C62.125904,8.956550 62.563808,8.980260 63.192455,9.243773   C64.257301,9.319275 65.131409,9.154976 66.337616,8.974985   C67.112808,8.968497 67.555901,8.977702 68.099152,9.378820   C74.616508,9.957213 81.033485,10.154889 87.451942,10.272315   C87.631477,10.275601 87.826714,9.420536 88.344116,8.957273   C89.112915,8.961840 89.552208,8.974848 90.257065,9.259413   C92.682198,9.352866 94.841782,9.174761 97.412430,8.978908   C100.222397,8.655456 102.621292,8.349751 105.273788,8.038979   C105.695831,8.019147 105.864288,8.004384 106.032745,7.989620   C106.759972,8.021196 107.487206,8.052773 108.695007,8.505025   C112.448532,8.965152 115.721481,9.004601 118.994438,9.044052   C119.422249,9.090473 119.850067,9.136895 120.747696,9.605926   C126.477524,10.358557 131.737534,10.688581 136.697174,11.298207   C134.006134,11.718986 131.578568,11.655090 129.238113,12.075794   C127.758621,12.341739 126.409134,13.330948 125.001335,13.995751   C122.633781,14.009134 120.266220,14.022519 117.218491,13.776796   C115.027298,14.014657 113.516266,14.511626 112.005241,15.008596   C110.949280,15.019164 109.893311,15.029733 108.442451,15.050514  z"/>
<path fill="#3BB95D" opacity="1.000000" stroke="none" d=" M9.225475,50.281319   C9.355398,48.239883 9.646656,46.493752 9.903774,44.365005   C10.212440,43.215546 10.555246,42.448700 11.286063,41.342403   C12.449709,41.002224 13.225343,41.001495 14.000977,41.000763   C15.365593,50.900581 13.050079,60.581852 12.059189,70.739403   C10.622866,68.155998 8.639844,65.260551 8.336782,62.198818   C7.960427,58.396648 8.973727,54.456928 9.225475,50.281319  z"/>
<path fill="#33B85A" opacity="1.000000" stroke="none" d=" M35.838596,91.664017   C33.652157,91.597343 30.807796,91.926338 29.044374,90.700432   C24.636560,87.636185 18.690031,86.298271 16.262819,79.862610   C16.001717,78.497597 16.003458,77.744835 16.005199,76.992065   C17.906628,77.819977 19.919407,78.461235 21.686018,79.515121   C25.229113,81.628777 28.790304,83.771866 32.036007,86.298485   C33.607327,87.521675 34.482403,89.639259 35.838596,91.664017  z"/>
<path fill="#54C376" opacity="1.000000" stroke="none" d=" M125.469742,14.007105   C126.409134,13.330948 127.758621,12.341739 129.238113,12.075794   C131.578568,11.655090 134.006134,11.718986 136.985962,11.267864   C138.046234,10.665621 138.517349,10.373322 138.988480,10.081025   C139.438950,10.092619 139.889404,10.104213 140.974396,10.393427   C145.064117,10.826658 148.519318,10.982270 151.974518,11.137882   C152.435745,11.131385 152.896988,11.124887 153.701370,11.074127   C154.044525,11.029866 154.513321,11.051224 154.747971,11.043390   C158.798355,11.830104 162.614090,12.624650 166.718536,13.683009   C167.005203,14.123617 167.003159,14.300411 166.999237,14.742493   C153.310974,14.678005 139.624557,14.348230 125.469742,14.007105  z"/>
<path fill="#45BD69" opacity="1.000000" stroke="none" d=" M14.005053,40.580494   C13.225343,41.001495 12.449709,41.002224 11.283637,41.005135   C10.604854,40.531368 10.316508,40.055424 9.992724,39.290924   C11.130541,32.290619 13.275803,26.112703 19.614567,22.001347   C18.165932,26.576597 16.300190,31.172855 14.622149,35.836651   C14.139620,37.177746 14.198488,38.713642 14.005053,40.580494  z"/>
<path fill="#3AB95E" opacity="1.000000" stroke="none" d=" M15.951811,76.661530   C16.003458,77.744835 16.001717,78.497597 16.001360,79.626709   C15.817168,81.205086 15.631591,82.407112 15.164541,83.854088   C13.904997,80.684349 12.926924,77.269676 11.960346,73.435257   C13.280702,74.120674 14.589561,75.225830 15.951811,76.661530  z"/>
<path fill="#43C268" opacity="1.000000" stroke="none" d=" M24.158520,20.154385   C23.882362,18.771021 23.818329,17.660885 24.277882,16.273207   C27.232529,16.033463 29.663589,16.071257 32.094650,16.109051   C29.519981,17.548571 26.945311,18.988092 24.158520,20.154385  z"/>
<path fill="#33B85A" opacity="1.000000" stroke="none" d=" M52.907982,95.553085   C47.995594,95.950691 42.973881,95.965866 37.488197,95.962448   C37.188271,95.410049 37.352318,94.876236 37.747505,94.173965   C42.918652,94.393898 47.858654,94.782272 52.907982,95.553085  z"/>
<path fill="#43C268" opacity="1.000000" stroke="none" d=" M48.991604,12.987468   C48.992809,13.155790 48.994015,13.324112 48.999313,13.744860   C44.598965,14.658451 40.194515,15.319619 35.380463,15.998645   C34.526928,16.026720 34.083004,16.036938 33.529640,15.757280   C36.619720,14.004810 39.819237,12.542216 43.018753,11.079622   C43.018753,11.079622 43.023415,11.011541 43.021057,10.976944   C43.459080,10.956223 43.899452,10.970099 44.669189,10.952106   C44.998547,10.920237 44.985619,10.995682 45.029705,11.313953   C46.379730,12.083972 47.685665,12.535720 48.991604,12.987468  z"/>
<path fill="#47B568" opacity="1.000000" stroke="none" d=" M42.647377,11.202703   C39.819237,12.542216 36.619720,14.004810 33.196335,15.754009   C32.972462,16.040613 32.531467,16.062157 32.313057,16.085606   C29.663589,16.071257 27.232529,16.033463 24.402182,15.995133   C28.973612,14.654447 33.940605,13.300203 38.917934,11.985087   C40.018524,11.694289 41.155678,11.541903 42.647377,11.202703  z"/>
<path fill="#40C264" opacity="1.000000" stroke="none" d=" M129.588806,70.951218   C129.982971,71.390511 129.992874,71.849388 130.004135,72.651787   C128.068573,72.995308 126.131660,72.995308 124.194748,72.995308   C124.140953,72.715576 124.087158,72.435852 124.033356,72.156120   C125.757088,71.761017 127.480812,71.365913 129.588806,70.951218  z"/>
<path fill="#3FBC62" opacity="1.000000" stroke="none" d=" M112.389595,15.009697   C113.516266,14.511626 115.027298,14.014657 116.775414,13.794792   C115.599655,14.384863 114.186798,14.697831 112.389595,15.009697  z"/>
<path fill="#40C264" opacity="1.000000" stroke="none" d=" M136.844727,70.665253   C135.726654,70.840660 134.590912,70.677071 133.221222,70.253410   C134.267197,70.104309 135.547104,70.215286 136.844727,70.665253  z"/>
<path fill="#45B665" opacity="1.000000" stroke="none" d=" M143.537201,66.310760   C144.209564,65.899055 144.754303,65.738480 145.299042,65.577904   C145.200378,66.121864 145.101730,66.665825 145.003082,67.209778   C144.471909,66.993813 143.940735,66.777847 143.537201,66.310760  z"/>
<path fill="#45B665" opacity="1.000000" stroke="none" d=" M139.013733,68.725960   C138.965714,68.726295 139.061752,68.725616 139.013733,68.725960  z"/>
<path fill="#33B85A" opacity="1.000000" stroke="none" d=" M58.011185,95.581848   C57.863564,95.825996 57.680603,95.851189 57.222412,95.839447   C57.128086,95.433632 57.308983,95.064743 57.489883,94.695854   C57.651871,94.918198 57.813862,95.140541 58.011185,95.581848  z"/>
<path fill="#9D639C" opacity="1.000000" stroke="none" d=" M177.104630,87.303391   C177.804916,86.957214 178.526611,86.994041 179.610809,87.028961   C180.640564,89.837494 181.588623,92.620148 181.870590,95.468742   C182.041779,97.197975 181.183395,99.029129 180.415192,100.916328   C179.070572,96.574242 178.098312,92.130325 177.104630,87.303391  z"/>
<path fill="#FD8026" opacity="1.000000" stroke="none" d=" M86.088173,137.613220   C85.347328,139.747314 84.662605,141.468658 83.966919,143.574142   C80.985756,146.392197 78.015579,148.826096 74.965202,151.608856   C74.885002,151.957687 74.441460,151.964188 74.013351,152.082626   C73.327202,152.378128 73.125679,152.605316 72.980667,152.882660   C68.313065,153.912720 63.674320,155.638489 58.972088,155.833527   C47.895390,156.292923 37.987617,152.592896 29.860426,145.001968   C27.950373,143.217957 27.222652,140.168091 26.142494,137.184692   C25.883989,136.147476 25.433990,135.626160 24.983990,135.104843   C24.809948,135.084763 24.635904,135.064667 24.199070,135.025360   C23.938644,132.965866 23.941006,130.925568 23.930069,128.449341   C26.664042,123.438080 29.105471,118.641228 32.224560,114.335251   C38.068302,106.267830 46.828964,103.463646 56.598877,102.434052   C55.623848,108.834213 57.135288,110.786827 62.076794,109.863037   C66.673355,109.003738 71.355522,108.602364 76.367508,107.999359   C77.830986,107.649330 78.926949,107.299332 80.022911,106.949341   C80.570320,107.136795 81.117729,107.324257 81.688377,108.087692   C80.662628,113.650688 83.229301,117.453407 88.008934,117.993607   C87.387390,124.395897 86.765839,130.798187 86.088173,137.613220  z"/>
<path fill="#FD842D" opacity="1.000000" stroke="none" d=" M76.000000,107.999390   C71.355522,108.602364 66.673355,109.003738 62.076794,109.863037   C57.135288,110.786827 55.623848,108.834213 56.995483,102.388184   C58.393459,101.995468 59.781277,101.991150 61.666603,102.362389   C65.985069,104.142540 69.502876,107.133316 74.285187,105.146286   C75.046913,106.194847 75.523453,107.097122 76.000000,107.999390  z"/>
<path fill="#F8852F" opacity="1.000000" stroke="none" d=" M88.013275,117.606621   C83.229301,117.453407 80.662628,113.650688 81.865570,108.323303   C85.206619,110.290550 88.117928,112.777252 88.013275,117.606621  z"/>
<path fill="#FD8026" opacity="1.000000" stroke="none" d=" M74.000000,105.000000   C69.502876,107.133316 65.985069,104.142540 62.082878,102.377739   C64.369980,101.999329 66.738312,101.981117 69.777588,102.230362   C71.632355,103.331886 72.816177,104.165947 74.000000,105.000000  z"/>
<path fill="#F8822D" opacity="1.000000" stroke="none" d=" M74.285187,105.146286   C72.816177,104.165947 71.632355,103.331886 70.221329,102.237000   C74.096603,101.507744 77.292305,103.051758 79.860550,106.649002   C78.926949,107.299332 77.830986,107.649330 76.367508,107.999359   C75.523453,107.097122 75.046913,106.194847 74.285187,105.146286  z"/>
<path fill="#E89050" opacity="1.000000" stroke="none" d=" M25.007084,135.373810   C25.433990,135.626160 25.883989,136.147476 26.092987,136.814438   C25.578047,136.520981 25.304111,136.081863 25.007084,135.373810  z"/>
<path fill="#F28638" opacity="1.000000" stroke="none" d=" M73.205017,152.807800   C73.125679,152.605316 73.327202,152.378128 73.792297,152.100632   C73.906792,152.320297 73.716805,152.564545 73.205017,152.807800  z"/>
<path fill="#3AB95E" opacity="1.000000" stroke="none" d=" M15.982492,85.263794   C16.138062,85.235680 16.443283,85.427818 16.862694,85.871918   C16.695305,85.910599 16.413725,85.697319 15.982492,85.263794  z"/>
<path fill="#48B96B" opacity="1.000000" stroke="none" d=" M88.014626,8.965715   C87.826714,9.420536 87.631477,10.275601 87.451942,10.272315   C81.033485,10.154889 74.616508,9.957213 68.569588,9.365528   C70.808113,8.650709 72.676361,8.341096 74.544617,8.031483   C78.703751,7.772487 82.862885,7.513491 87.450302,7.567050   C87.923927,8.241642 87.969276,8.603679 88.014626,8.965715  z"/>
<path fill="#83C298" opacity="1.000000" stroke="none" d=" M88.344116,8.957273   C87.969276,8.603679 87.923927,8.241642 87.860497,7.606845   C93.256248,7.233267 98.670082,7.132450 104.546280,7.308528   C105.008636,7.585424 105.020187,8.044048 105.020187,8.044048   C102.621292,8.349751 100.222397,8.655456 96.974670,8.964981   C94.081055,8.975153 92.036285,8.981503 89.991508,8.987854   C89.552208,8.974848 89.112915,8.961840 88.344116,8.957273  z"/>
<path fill="#83C298" opacity="1.000000" stroke="none" d=" M74.302887,7.739466   C72.676361,8.341096 70.808113,8.650709 68.469421,8.973616   C67.555901,8.977702 67.112808,8.968497 65.962036,8.962778   C64.503479,8.978832 63.752598,8.991401 63.001717,9.003969   C62.563808,8.980260 62.125904,8.956550 61.361290,8.897691   C61.019573,8.508840 61.004566,8.155137 60.978889,7.535894   C65.332527,7.329386 69.696846,7.388419 74.302887,7.739466  z"/>
<path fill="#77C390" opacity="1.000000" stroke="none" d=" M118.975471,8.778048   C115.721481,9.004601 112.448532,8.965152 109.054993,8.559822   C111.992119,8.154409 115.049835,8.114875 118.562660,8.028778   C118.997360,8.158826 118.976936,8.335435 118.975471,8.778048  z"/>
<path fill="#77C390" opacity="1.000000" stroke="none" d=" M105.273788,8.038980   C105.020187,8.044048 105.008636,7.585424 105.012894,7.356674   C105.306786,7.254159 105.596420,7.380394 105.959396,7.748125   C105.864288,8.004384 105.695831,8.019147 105.273788,8.038980  z"/>
<path fill="#77C390" opacity="1.000000" stroke="none" d=" M138.698730,9.777130   C138.517349,10.373322 138.046234,10.665621 137.286316,10.988260   C131.737534,10.688581 126.477524,10.358557 121.063217,9.674332   C126.742264,9.371165 132.575623,9.422200 138.698730,9.777130  z"/>
<path fill="#77C390" opacity="1.000000" stroke="none" d=" M151.703018,10.828832   C148.519318,10.982270 145.064117,10.826658 141.309296,10.439869   C144.483627,10.312387 147.957565,10.416084 151.703018,10.828832  z"/>
<path fill="#47B568" opacity="1.000000" stroke="none" d=" M49.249039,12.724869   C47.685665,12.535720 46.379730,12.083972 45.026157,11.352060   C46.478577,10.891087 47.978630,10.710277 49.748505,10.271563   C52.054371,9.995941 54.090420,9.978221 56.563576,9.952268   C54.502617,10.783445 52.004547,11.622857 49.249039,12.724869  z"/>
<path fill="#48B96B" opacity="1.000000" stroke="none" d=" M90.257065,9.259413   C92.036285,8.981503 94.081055,8.975153 96.563599,8.982729   C94.841782,9.174761 92.682198,9.352866 90.257065,9.259413  z"/>
<path fill="#48B96B" opacity="1.000000" stroke="none" d=" M63.192455,9.243772   C63.752598,8.991401 64.503479,8.978832 65.629936,8.978471   C65.131409,9.154976 64.257301,9.319275 63.192455,9.243772  z"/>
</svg>